# xmcd CD database file
#
# Track frame offsets:
#	150
#	28033
#	48135
#	69074
#	87978
#	115069
#	138123
#	168128
#	212854
#	233741
#	259802
#	274526
#	303998
#	325482
#
# Disc length: 4750 seconds
#
# Revision: 0
# Processed by: cddbd v1.5.2PL0 Copyright (c) Steve Scherf et al.
# Submitted via: CDex 1.51
#
DISCID=b4128c0e
DTITLE=Coleman Hawkins - The Hawk Relaxes and Soul
DYEAR=1961
DGENRE=Jazz
TTITLE0=I'll Never Be The Same ( The Hawk Relaxes - 1961 )
TTITLE1=When Day Is Done
TTITLE2=Under A Blanket Of Blue
TTITLE3=More Than You Know
TTITLE4=Moonglow
TTITLE5=Just A Gigolo
TTITLE6=Speak Low
TTITLE7=Soul Blues ( Soul - 1958 )
TTITLE8=I Hadn't Anyone Till You
TTITLE9=Groovin'
TTITLE10=Greensleeves
TTITLE11=Sunday Morning
TTITLE12=Until The Real Thing Comes Along
TTITLE13=Sweetnin'
EXTD=YEAR: 1961
EXTT0=
EXTT1=
EXTT2=
EXTT3=
EXTT4=
EXTT5=
EXTT6=
EXTT7=
EXTT8=
EXTT9=
EXTT10=
EXTT11=
EXTT12=
EXTT13=
PLAYORDER=
